<svg version="1.1" xmlns="http://www.w3.org/2000/svg" xmlns:xlink="http://www.w3.org/1999/xlink" width="104.52238" height="104.52238" viewBox="0,0,104.52238,104.52238"><g transform="translate(-187.73881,-127.73881)"><g data-paper-data="{&quot;isPaintingLayer&quot;:true}" stroke-width="1" stroke-linejoin="miter" stroke-miterlimit="10" stroke-dasharray="" stroke-dashoffset="0" style="mix-blend-mode: normal"><path d="M188.23881,231.76119v-103.52238h103.52238v103.52238z" fill="#505050" fill-rule="nonzero" stroke="#000000" stroke-linecap="butt"/><path d="M201.17853,141.93199h81.21267v76.13602h-81.21267z" fill="#000000" fill-rule="evenodd" stroke="none" stroke-linecap="square"/><path d="M237.94913,166.80232c-5.0134,9.42846 -15.79564,14.20647 -26.15376,11.5897c-10.35813,-2.61676 -17.63477,-11.95697 -17.65049,-22.65595c-0.01572,-10.69896 7.23352,-20.01188 17.58401,-22.58972c10.35049,-2.57784 21.14682,2.24072 26.18796,11.68808l-10.2534,5.47268v0c-2.53186,-4.74484 -7.94203,-7.1708 -13.12114,-5.88361c-5.17911,1.28718 -8.79743,5.95702 -8.7754,11.32564c0.02202,5.36862 3.67872,10.05761 8.86851,11.3721c5.18979,1.31449 10.58016,-1.08302 13.07315,-5.81463z" fill="#ff0000" fill-rule="evenodd" stroke="none" stroke-linecap="square"/><path d="M286.69848,166.80232c-5.0134,9.42846 -15.79563,14.20647 -26.15375,11.5897c-10.35812,-2.61676 -17.63477,-11.95697 -17.65049,-22.65595c-0.01572,-10.69896 7.23352,-20.01188 17.58401,-22.58972c10.35049,-2.57784 21.14682,2.24072 26.18795,11.68808l-10.2534,5.47268v0c-2.53186,-4.74484 -7.94202,-7.1708 -13.12114,-5.88361c-5.17912,1.28718 -8.79743,5.95702 -8.77541,11.32564c0.02202,5.36862 3.67872,10.05761 8.86851,11.3721c5.18979,1.31449 10.58017,-1.08302 13.07315,-5.81463z" fill="#ff0000" fill-rule="evenodd" stroke="none" stroke-linecap="square"/><path d="M196.12995,184.02467h11.1524v41.38718h-11.1524z" fill="#00ff00" fill-rule="evenodd" stroke="none" stroke-linecap="square"/><path d="M196.73569,201.0939v0c2.58384,-11.49636 12.77768,-19.10492 23.72897,-17.71103c10.95129,1.39389 19.19912,11.34973 19.19912,23.17496l-10.88348,0.00113c0,-6.34539 -4.16759,-11.67622 -9.67757,-12.37874c-5.50998,-0.70252 -10.60113,3.44784 -11.82217,9.63754z" fill="#00ff00" fill-rule="evenodd" stroke="none" stroke-linecap="square"/><path d="M228.51355,204.52324h11.1524v20.88711h-11.1524z" fill="#00ff00" fill-rule="evenodd" stroke="none" stroke-linecap="square"/><path d="M245.85469,204.71822v0c0,-11.65122 9.30916,-21.09639 20.79259,-21.09639v0c5.51454,0 10.80323,2.22265 14.7026,6.17899c3.89937,3.95634 6.09001,9.32229 6.09001,14.91741v0c0,11.65122 -9.30917,21.0964 -20.79261,21.0964v0c-11.48343,0 -20.79259,-9.44518 -20.79259,-21.09639zM276.79741,208.62419c1.49169,-4.09669 0.51353,-8.7117 -2.50082,-11.79902c-3.01436,-3.08732 -7.50716,-4.0757 -11.48656,-2.52695zM256.49718,200.81226v0c-1.49169,4.09668 -0.51352,8.71169 2.50083,11.79902c3.01436,3.08732 7.50714,4.0757 11.48654,2.52694z" fill="#0000ff" fill-rule="evenodd" stroke="none" stroke-linecap="square"/></g></g></svg>