<svg version="1.1" xmlns="http://www.w3.org/2000/svg" xmlns:xlink="http://www.w3.org/1999/xlink" width="25.50868" height="29.00277" viewBox="0,0,25.50868,29.00277"><g transform="translate(-227.24565,-165.35015)"><g data-paper-data="{&quot;isPaintingLayer&quot;:true}" fill-rule="nonzero" stroke-linejoin="miter" stroke-miterlimit="10" stroke-dasharray="" stroke-dashoffset="0" style="mix-blend-mode: normal"><path d="M240.14682,168.96116c0.83294,-0.84451 4.64982,-1.65586 4.64982,-1.65586c0,0 -0.75862,3.8277 -1.59157,4.67222c-0.83294,0.84451 -3.03731,0.02095 -3.03731,0.02095c0,0 -0.85389,-2.19279 -0.02095,-3.03731z" fill="#3ed143" stroke="#0f6e12" stroke-width="1" stroke-linecap="butt"/><path d="M239.35503,172.5498l-0.64497,-6.44965" fill="#c1d487" stroke="#0e5411" stroke-width="1.5" stroke-linecap="round"/><path d="M227.74566,182.22428c0,-5.24058 2.67278,-8.89038 7.2997,-10.642c1.34846,-0.51049 3.83856,1.43935 5.36586,1.43935c1.21366,0 3.00295,-1.8472 4.10994,-1.51858c5.06607,1.50389 7.73317,5.16701 7.73317,10.72123c0,5.41323 -3.50994,10.00668 -8.37813,11.62864c-1.21825,0.40589 -2.52156,-1.95416 -3.87621,-1.95416c-1.65254,0 -3.22868,2.25275 -4.66721,1.65975c-4.45287,-1.83559 -7.58713,-6.21889 -7.58713,-11.33423z" fill="#c1d487" stroke="#0e5411" stroke-width="1" stroke-linecap="butt"/></g></g></svg>