<svg version="1.1" xmlns="http://www.w3.org/2000/svg" xmlns:xlink="http://www.w3.org/1999/xlink" width="103.10441" height="104.13532" viewBox="0,0,103.10441,104.13532"><g transform="translate(-188.44779,-127.93234)"><g data-paper-data="{&quot;isPaintingLayer&quot;:true}" fill-rule="nonzero" stroke-width="1" stroke-linejoin="miter" stroke-miterlimit="10" stroke-dasharray="" stroke-dashoffset="0" style="mix-blend-mode: normal"><g fill="#363636" stroke="#7d7d7d"><path d="M188.94779,231.56766v-103.13532h102.10441v103.13532z" stroke-linecap="butt"/><path d="M290.52634,141.81898h-101.27283" stroke-linecap="round"/><path d="M290.17712,151.59705h-100.5744" stroke-linecap="round"/></g><g fill="#363636" stroke="#7d7d7d"><path d="M209.15886,130.29483c2.70014,0 4.88903,2.18889 4.88903,4.88903c0,2.70014 -2.18889,4.88903 -4.88903,4.88903c-2.70014,0 -4.88903,-2.18889 -4.88903,-4.88903c0,-2.70014 2.18889,-4.88903 4.88903,-4.88903z" stroke-linecap="butt"/><path d="M209.15886,130.99326v7.68277" stroke-linecap="round"/></g><g fill="#363636" stroke="#7d7d7d"><path d="M196.23784,130.29483c2.70014,0 4.88904,2.1889 4.88903,4.88903c0,2.70014 -2.18889,4.88903 -4.88903,4.88903c-2.70014,0 -4.88903,-2.18889 -4.88904,-4.88903c0,-2.70014 2.1889,-4.88903 4.88904,-4.88903z" stroke-linecap="butt"/><path d="M196.23784,130.99326v7.68276" stroke-linecap="round"/></g><g fill="#363636" stroke="#7d7d7d"><path d="M283.54201,130.29483c2.70014,0 4.88903,2.18889 4.88903,4.88903c0,2.70014 -2.1889,4.88903 -4.88904,4.88903c-2.70014,0 -4.88903,-2.18889 -4.88903,-4.88903c0,-2.70014 2.18889,-4.88903 4.88904,-4.88904z" stroke-linecap="butt"/><path d="M283.54201,138.67602v-7.68276" stroke-linecap="round"/></g><g fill="#363636" stroke="#7d7d7d"><path d="M270.97021,130.64405c2.70014,0 4.88903,2.1889 4.88903,4.88904c0,2.70014 -2.1889,4.88903 -4.88904,4.88903c-2.70014,0 -4.88903,-2.18889 -4.88903,-4.88903c0,-2.70014 2.1889,-4.88903 4.88904,-4.88904z" stroke-linecap="butt"/><path d="M270.97021,131.34248v7.68277" stroke-linecap="round"/></g><path d="M225.33923,139.72368v-9.42885h30.38185v9.42885z" fill="#353535" stroke="#7d7d7d" stroke-linecap="butt"/><text transform="translate(234.06965,136.99442) scale(0.13865,0.13865)" font-size="40" xml:space="preserve" fill="#adff9e" fill-rule="nonzero" stroke="none" stroke-width="1" stroke-linecap="butt" stroke-linejoin="miter" stroke-miterlimit="10" stroke-dasharray="" stroke-dashoffset="0" font-family="Sans Serif" font-weight="normal" text-anchor="start" style="mix-blend-mode: normal"><tspan x="0" dy="0">12:00</tspan></text><path d="M198.33314,225.28176v-57.27153h84.85965v57.27153z" fill="#232323" stroke="#7d7d7d" stroke-linecap="butt"/><path d="M196.93628,162.77198v-6.2859h88.0026v6.2859z" fill="none" stroke="#7d7d7d" stroke-linecap="butt"/></g></g></svg>