<svg version="1.1" xmlns="http://www.w3.org/2000/svg" xmlns:xlink="http://www.w3.org/1999/xlink" width="73.41848" height="104.13532" viewBox="0,0,73.41848,104.13532"><defs><linearGradient x1="240.18094" y1="135.97147" x2="240.18094" y2="142.48528" gradientUnits="userSpaceOnUse" id="color-1"><stop offset="0" stop-color="#7a6661"/><stop offset="1" stop-color="#7a6661" stop-opacity="0"/></linearGradient></defs><g transform="translate(-198.96963,-127.93234)"><g data-paper-data="{&quot;isPaintingLayer&quot;:true}" fill-rule="nonzero" stroke-width="1" stroke-linecap="butt" stroke-linejoin="miter" stroke-miterlimit="10" stroke-dasharray="" stroke-dashoffset="0" style="mix-blend-mode: normal"><path d="M208.15471,231.56766v-103.13532h63.69058v103.13532z" fill="#414141" stroke="#7d7d7d"/><path d="M207.97377,142.48528v-6.51381h64.41434v6.51381z" fill="url(#color-1)" stroke="none"/><path d="M199.46963,138.92681v-10.49447h72.37566v10.49447z" fill="#ffffff" stroke="#7d7d7d"/><path d="M211.04974,160.82045v-15.92265h57.90053v15.92265z" fill="#414141" stroke="#7d7d7d"/><path d="M237.32488,152.85913c0,-1.47743 1.19769,-2.67512 2.67512,-2.67512c1.47743,0 2.67512,1.19769 2.67512,2.67512c0,1.47743 -1.19769,2.67512 -2.67512,2.67512c-1.47743,0 -2.67512,-1.19769 -2.67512,-2.67512z" fill="#ffe80e" stroke="#692e00"/><path d="M211.04974,229.21546v-66.58561h57.90053v66.58561z" fill="#414141" stroke="#7d7d7d"/><path d="M260.12321,176.38123c0,-1.47743 1.19769,-2.67512 2.67512,-2.67512c1.47743,0 2.67512,1.19769 2.67512,2.67512c0,1.47743 -1.19769,2.67512 -2.67512,2.67512c-1.47743,0 -2.67512,-1.19769 -2.67512,-2.67512z" fill="#ffe80e" stroke="#692e00"/></g></g></svg>