<svg version="1.1" xmlns="http://www.w3.org/2000/svg" xmlns:xlink="http://www.w3.org/1999/xlink" width="66.24843" height="66.46267" viewBox="0,0,66.24843,66.46267"><g transform="translate(-206.87579,-146.58468)"><g data-paper-data="{&quot;isPaintingLayer&quot;:true}" fill="#efedea" fill-rule="nonzero" stroke="#333333" stroke-width="1" stroke-linecap="butt" stroke-linejoin="miter" stroke-miterlimit="10" stroke-dasharray="" stroke-dashoffset="0" style="mix-blend-mode: normal"><path d="M223.6978,179.72869v-16.322h16.32201v16.322z"/><path d="M207.3758,163.40669v-16.322h16.322v16.322z"/><path d="M223.6978,163.40669v-16.322h16.32201v16.322z"/><path d="M207.3758,179.72869v-16.322h16.322v16.322z"/><path d="M256.30222,179.72869v-16.322h16.322v16.322z"/><path d="M239.98022,163.40669v-16.322h16.322v16.322z"/><path d="M256.30222,163.40669v-16.322h16.322v16.322z"/><path d="M239.98022,179.72869v-16.322h16.322v16.322z"/><path d="M223.6978,212.54736v-16.322h16.32201v16.322z"/><path d="M207.3758,196.22535v-16.322h16.322v16.322z"/><path d="M223.6978,196.22535v-16.322h16.32201v16.322z"/><path d="M207.3758,212.54736v-16.322h16.322v16.322z"/><path d="M256.30222,212.54736v-16.322h16.32201v16.322z"/><path d="M239.98022,196.22535v-16.322h16.322v16.322z"/><path d="M256.30222,196.22535v-16.322h16.32201v16.322z"/><path d="M239.98022,212.54736v-16.322h16.322v16.322z"/></g></g></svg>