<svg version="1.1" xmlns="http://www.w3.org/2000/svg" xmlns:xlink="http://www.w3.org/1999/xlink" width="66.24843" height="66.46267" viewBox="0,0,66.24843,66.46267"><g transform="translate(-206.8758,-146.5847)"><g data-paper-data="{&quot;isPaintingLayer&quot;:true}" fill="#333333" fill-rule="nonzero" stroke="#efedea" stroke-width="1" stroke-linecap="butt" stroke-linejoin="miter" stroke-miterlimit="10" stroke-dasharray="" stroke-dashoffset="0" style="mix-blend-mode: normal"><path d="M223.69781,179.7287v-16.322h16.32201v16.322z"/><path d="M207.37581,163.4067v-16.322h16.322v16.322z"/><path d="M223.69781,163.4067v-16.322h16.32201v16.322z"/><path d="M207.37581,179.7287v-16.322h16.322v16.322z"/><path d="M256.30223,179.7287v-16.322h16.322v16.322z"/><path d="M239.98023,163.4067v-16.322h16.322v16.322z"/><path d="M256.30223,163.4067v-16.322h16.322v16.322z"/><path d="M239.98023,179.7287v-16.322h16.322v16.322z"/><path d="M223.69781,212.54737v-16.322h16.32201v16.322z"/><path d="M207.37581,196.22536v-16.322h16.322v16.322z"/><path d="M223.69781,196.22536v-16.322h16.32201v16.322z"/><path d="M207.37581,212.54737v-16.322h16.322v16.322z"/><path d="M256.30223,212.54737v-16.322h16.32201v16.322z"/><path d="M239.98023,196.22536v-16.322h16.322v16.322z"/><path d="M256.30223,196.22536v-16.322h16.32201v16.322z"/><path d="M239.98023,212.54737v-16.322h16.322v16.322z"/></g></g></svg>