<svg version="1.1" xmlns="http://www.w3.org/2000/svg" xmlns:xlink="http://www.w3.org/1999/xlink" width="66.24843" height="66.83065" viewBox="0,0,66.24843,66.83065"><g transform="translate(-206.87578,-146.58467)"><g data-paper-data="{&quot;isPaintingLayer&quot;:true}" fill-rule="nonzero" stroke="#333333" stroke-width="1" stroke-linecap="butt" stroke-linejoin="miter" stroke-miterlimit="10" stroke-dasharray="" stroke-dashoffset="0" style="mix-blend-mode: normal"><path d="M223.69779,179.72868v-16.322h16.32201v16.322z" fill="#333333"/><path d="M207.37579,163.40668v-16.322h16.322v16.322z" fill="#333333"/><path d="M223.69779,163.40668v-16.322h16.32201v16.322z" fill="#efedea"/><path d="M207.37579,179.72868v-16.322h16.322v16.322z" fill="#efedea"/><path d="M256.30221,179.72868v-16.322h16.322v16.322z" fill="#333333"/><path d="M239.98021,163.40668v-16.322h16.322v16.322z" fill="#333333"/><path d="M256.30221,163.40668v-16.322h16.322v16.322z" fill="#efedea"/><path d="M239.98021,179.72868v-16.322h16.322v16.322z" fill="#efedea"/><path d="M223.69779,212.91533v-16.322h16.32201v16.322z" fill="#333333"/><path d="M207.37579,196.59332v-16.322h16.322v16.322z" fill="#333333"/><path d="M223.69779,196.59332v-16.322h16.32201v16.322z" fill="#efedea"/><path d="M207.37579,212.91533v-16.322h16.322v16.322z" fill="#efedea"/><path d="M256.30221,212.91533v-16.322h16.32201v16.322z" fill="#333333"/><path d="M239.98021,196.59332v-16.322h16.322v16.322z" fill="#333333"/><path d="M256.30221,196.59332v-16.322h16.32201v16.322z" fill="#efedea"/><path d="M239.98021,212.91533v-16.322h16.322v16.322z" fill="#efedea"/></g></g></svg>