<svg version="1.1" xmlns="http://www.w3.org/2000/svg" xmlns:xlink="http://www.w3.org/1999/xlink" width="172.57394" height="87.75465" viewBox="0,0,172.57394,87.75465"><g transform="translate(-153.71303,-136.12267)"><g data-paper-data="{&quot;isPaintingLayer&quot;:true}" fill-rule="nonzero" stroke-width="1" stroke-linecap="butt" stroke-linejoin="miter" stroke-miterlimit="10" stroke-dasharray="" stroke-dashoffset="0" style="mix-blend-mode: normal"><path d="M171.92673,190.69975v-10.65574h38.33129v10.65574z" fill="#e66969" stroke="#efedea"/><path d="M210.25802,190.69975v-10.65574h38.33129v10.65574z" fill="#e66969" stroke="#efedea"/><path d="M154.21303,201.71067v-10.65574h38.33129v10.65574z" fill="#e66969" stroke="#efedea"/><path d="M192.54432,201.71067v-10.65574h38.33129v10.65574z" fill="#e66969" stroke="#efedea"/><path d="M172.21712,212.36641v-10.65574h38.33129v10.65574z" fill="#e66969" stroke="#efedea"/><path d="M210.5484,212.36641v-10.65574h38.33129v10.65574z" fill="#e66969" stroke="#efedea"/><path d="M154.50342,223.37733v-10.65574h38.33129v10.65574z" fill="#e66969" stroke="#efedea"/><path d="M192.8347,223.37733v-10.65574h38.33129v10.65574z" fill="#e66969" stroke="#efedea"/><path d="M248.83401,190.69975v-10.65574h38.33129v10.65574z" fill="#e66969" stroke="#efedea"/><path d="M287.1653,190.69975v-10.65574h38.33129v10.65574z" fill="#e66969" stroke="#efedea"/><path d="M231.12031,201.71067v-10.65574h38.33129v10.65574z" fill="#e66969" stroke="#efedea"/><path d="M269.4516,201.71067v-10.65574h38.33129v10.65574z" fill="#e66969" stroke="#efedea"/><path d="M249.1244,212.36641v-10.65574h38.33129v10.65574z" fill="#e66969" stroke="#efedea"/><path d="M287.45568,212.36641v-10.65574h38.33129v10.65574z" fill="#e66969" stroke="#efedea"/><path d="M231.4107,223.37733v-10.65574h38.33129v10.65574z" fill="#e66969" stroke="#efedea"/><path d="M269.74198,223.37733v-10.65574h38.33129v10.65574z" fill="#e66969" stroke="#efedea"/><path d="M171.92673,147.27841v-10.65574h38.33129v10.65574z" fill="#e66969" stroke="#efedea"/><path d="M210.25802,147.27841v-10.65574h38.33129v10.65574z" fill="#e66969" stroke="#efedea"/><path d="M154.21303,158.28933v-10.65574h38.33129v10.65574z" fill="#e66969" stroke="#efedea"/><path d="M192.54432,158.28933v-10.65574h38.33129v10.65574z" fill="#e66969" stroke="#efedea"/><path d="M172.21712,168.94507v-10.65574h38.33129v10.65574z" fill="#e66969" stroke="#efedea"/><path d="M210.5484,168.94507v-10.65574h38.33129v10.65574z" fill="#e66969" stroke="#efedea"/><path d="M154.50342,179.95599v-10.65574h38.33129v10.65574z" fill="#e66969" stroke="#efedea"/><path d="M192.8347,179.95599v-10.65574h38.33129v10.65574z" fill="#e66969" stroke="#efedea"/><path d="M248.83401,147.27841v-10.65574h38.33129v10.65574z" fill="#e66969" stroke="#efedea"/><path d="M287.1653,147.27841v-10.65574h38.33129v10.65574z" fill="#e66969" stroke="#efedea"/><path d="M231.12031,158.28933v-10.65574h38.33129v10.65574z" fill="#e66969" stroke="#efedea"/><path d="M269.4516,158.28933v-10.65574h38.33129v10.65574z" fill="#e66969" stroke="#efedea"/><path d="M249.1244,168.94507v-10.65574h38.33129v10.65574z" fill="#e66969" stroke="#efedea"/><path d="M287.45568,168.94507v-10.65574h38.33129v10.65574z" fill="#e66969" stroke="#efedea"/><path d="M231.4107,179.95599v-10.65574h38.33129v10.65574z" fill="#e66969" stroke="#efedea"/><path d="M269.74198,179.95599v-10.65574h38.33129v10.65574z" fill="#e66969" stroke="#efedea"/></g></g></svg>