<svg version="1.1" xmlns="http://www.w3.org/2000/svg" xmlns:xlink="http://www.w3.org/1999/xlink" width="74.44421" height="63.87692" viewBox="0,0,74.44421,63.87692"><g transform="translate(-202.7779,-148.06154)"><g data-paper-data="{&quot;isPaintingLayer&quot;:true}" fill-rule="nonzero" stroke-width="1" stroke-linejoin="miter" stroke-miterlimit="10" stroke-dasharray="" stroke-dashoffset="0" style="mix-blend-mode: normal"><path d="M212.47338,194.28178v-40.46405h53.59701v40.46405z" fill="#ff972b" stroke="#57390c" stroke-linecap="butt"/><path d="M203.2779,155.61413v-7.05259h73.44421v7.05259z" fill="#ff972b" stroke="#57390c" stroke-linecap="butt"/><path d="M208.88476,211.43846v-55.69114h6.16424v55.69114z" fill="#ff972b" stroke="#57390c" stroke-linecap="butt"/><path d="M264.38266,211.43846v-55.69115h6.16424v55.69115z" fill="#ff972b" stroke="#57390c" stroke-linecap="butt"/><path d="M215.07274,175.96969h48.88174" fill="none" stroke="#57390c" stroke-linecap="round"/><path d="M237.32488,165.8772c0,-1.47743 1.19769,-2.67512 2.67512,-2.67512c1.47743,0 2.67512,1.19769 2.67512,2.67512c0,1.47743 -1.19769,2.67512 -2.67512,2.67512c-1.47743,0 -2.67512,-1.19769 -2.67512,-2.67512z" fill="#ffe80e" stroke="#692e00" stroke-linecap="butt"/><path d="M237.32488,185.08942c0,-1.47743 1.19769,-2.67512 2.67512,-2.67512c1.47743,0 2.67512,1.19769 2.67512,2.67512c0,1.47743 -1.19769,2.67512 -2.67512,2.67512c-1.47743,0 -2.67512,-1.19769 -2.67512,-2.67512z" fill="#ffe80e" stroke="#692e00" stroke-linecap="butt"/></g></g></svg>