<svg version="1.1" xmlns="http://www.w3.org/2000/svg" xmlns:xlink="http://www.w3.org/1999/xlink" width="65.35876" height="65.35876" viewBox="0,0,65.35876,65.35876"><defs><linearGradient x1="239.94349" y1="156.85467" x2="239.94349" y2="184.86362" gradientUnits="userSpaceOnUse" id="color-1"><stop offset="0" stop-color="#ff0000"/><stop offset="1" stop-color="#ff0000" stop-opacity="0"/></linearGradient><linearGradient x1="263.3598" y1="180" x2="235.35084" y2="180" gradientUnits="userSpaceOnUse" id="color-2"><stop offset="0" stop-color="#ffc800"/><stop offset="1" stop-color="#ffc800" stop-opacity="0"/></linearGradient><linearGradient x1="240.05651" y1="203.14533" x2="240.05651" y2="175.13638" gradientUnits="userSpaceOnUse" id="color-3"><stop offset="0" stop-color="#00fff3"/><stop offset="1" stop-color="#00fff3" stop-opacity="0"/></linearGradient><linearGradient x1="216.6402" y1="180" x2="244.64916" y2="180" gradientUnits="userSpaceOnUse" id="color-4"><stop offset="0" stop-color="#4400ff"/><stop offset="1" stop-color="#4400ff" stop-opacity="0"/></linearGradient><linearGradient x1="239.94349" y1="156.85467" x2="239.94349" y2="184.86362" gradientUnits="userSpaceOnUse" id="color-5"><stop offset="0" stop-color="#ff0000"/><stop offset="1" stop-color="#ff0000" stop-opacity="0"/></linearGradient><linearGradient x1="263.3598" y1="180" x2="235.35084" y2="180" gradientUnits="userSpaceOnUse" id="color-6"><stop offset="0" stop-color="#ffc800"/><stop offset="1" stop-color="#ffc800" stop-opacity="0"/></linearGradient><linearGradient x1="240.05651" y1="203.14533" x2="240.05651" y2="175.13638" gradientUnits="userSpaceOnUse" id="color-7"><stop offset="0" stop-color="#00fff3"/><stop offset="1" stop-color="#00fff3" stop-opacity="0"/></linearGradient><linearGradient x1="216.6402" y1="180" x2="244.64915" y2="180" gradientUnits="userSpaceOnUse" id="color-8"><stop offset="0" stop-color="#4400ff"/><stop offset="1" stop-color="#4400ff" stop-opacity="0"/></linearGradient><linearGradient x1="239.94349" y1="156.85467" x2="239.94349" y2="184.86362" gradientUnits="userSpaceOnUse" id="color-9"><stop offset="0" stop-color="#ff0000"/><stop offset="1" stop-color="#ff0000" stop-opacity="0"/></linearGradient><linearGradient x1="263.3598" y1="180" x2="235.35084" y2="180" gradientUnits="userSpaceOnUse" id="color-10"><stop offset="0" stop-color="#ffc800"/><stop offset="1" stop-color="#ffc800" stop-opacity="0"/></linearGradient><linearGradient x1="240.05651" y1="203.14533" x2="240.05651" y2="175.13638" gradientUnits="userSpaceOnUse" id="color-11"><stop offset="0" stop-color="#00fff3"/><stop offset="1" stop-color="#00fff3" stop-opacity="0"/></linearGradient><linearGradient x1="216.6402" y1="180" x2="244.64915" y2="180" gradientUnits="userSpaceOnUse" id="color-12"><stop offset="0" stop-color="#4400ff"/><stop offset="1" stop-color="#4400ff" stop-opacity="0"/></linearGradient><linearGradient x1="239.94349" y1="156.85467" x2="239.94349" y2="184.86362" gradientUnits="userSpaceOnUse" id="color-13"><stop offset="0" stop-color="#ff0000"/><stop offset="1" stop-color="#ff0000" stop-opacity="0"/></linearGradient><linearGradient x1="263.3598" y1="180" x2="235.35084" y2="180" gradientUnits="userSpaceOnUse" id="color-14"><stop offset="0" stop-color="#ffc800"/><stop offset="1" stop-color="#ffc800" stop-opacity="0"/></linearGradient><linearGradient x1="240.05651" y1="203.14533" x2="240.05651" y2="175.13638" gradientUnits="userSpaceOnUse" id="color-15"><stop offset="0" stop-color="#00fff3"/><stop offset="1" stop-color="#00fff3" stop-opacity="0"/></linearGradient><linearGradient x1="216.6402" y1="180" x2="244.64915" y2="180" gradientUnits="userSpaceOnUse" id="color-16"><stop offset="0" stop-color="#4400ff"/><stop offset="1" stop-color="#4400ff" stop-opacity="0"/></linearGradient></defs><g transform="translate(-207.32062,-147.32062)"><g data-paper-data="{&quot;isPaintingLayer&quot;:true}" fill-rule="nonzero" stroke-linecap="butt" stroke-linejoin="miter" stroke-miterlimit="10" stroke-dasharray="" stroke-dashoffset="0" style="mix-blend-mode: normal"><path d="M207.82062,212.17938v-64.35876h64.35876v64.35876z" fill="#cfcfcf" stroke="#000000" stroke-width="1"/><g stroke="none" stroke-width="0"><path d="M216.69878,178.52043c0.90438,-12.8377 12.04453,-22.51156 24.88223,-21.60718c12.8377,0.90438 22.51156,12.04453 21.60718,24.88223c-0.05233,0.7428 -0.13892,1.47501 -0.25814,2.19519c-4.31329,-0.08974 -8.56911,-0.00659 -12.8014,0.1383c0.08224,-2.08677 0.13764,-3.50231 0.13875,-3.51815c0.08015,-1.13779 -1.32334,-5.83813 -1.59902,-6.16617c-1.65246,-2.52932 -4.42729,-4.28315 -7.67353,-4.51184c-3.10359,-0.21864 -7.32856,0.82417 -9.5234,3.59505c-1.70123,2.14772 -1.7696,6.16001 -1.77146,6.18633c-0.02263,0.32121 -0.15266,2.36287 -0.25318,5.13442c-2.18427,0.02592 -4.37698,0.02019 -6.58276,-0.03234c-1.82856,-0.04355 -3.84201,-0.39739 -5.8869,-0.68347c-0.31247,-1.8139 -0.41351,-3.69419 -0.27838,-5.61237z" fill="url(#color-1)"/><path d="M241.69404,156.75529c12.8377,0.90438 22.51156,12.04454 21.60718,24.88224c-0.90438,12.8377 -12.04454,22.51156 -24.88224,21.60718c-0.7428,-0.05233 -1.47501,-0.13893 -2.19519,-0.25813c0.08974,-4.31329 0.0066,-8.56911 -0.13829,-12.8014c2.08677,0.08223 3.50231,0.13764 3.51815,0.13875c1.13778,0.08015 5.83812,-1.32334 6.16617,-1.59901c2.52933,-1.65246 4.28315,-4.42729 4.51184,-7.67354c0.21864,-3.10359 -0.82418,-7.32856 -3.59506,-9.5234c-2.14772,-1.70123 -6.16001,-1.76961 -6.18633,-1.77146c-0.32121,-0.02263 -2.36287,-0.15266 -5.13442,-0.25318c-0.02592,-2.18427 -0.02019,-4.37698 0.03234,-6.58277c0.04355,-1.82856 0.39739,-3.84201 0.68347,-5.8869c1.81391,-0.31247 3.69419,-0.4135 5.61237,-0.27838z" fill="url(#color-2)"/><path d="M263.30122,181.47957c-0.90438,12.8377 -12.04454,22.51156 -24.88224,21.60718c-12.8377,-0.90438 -22.51156,-12.04453 -21.60718,-24.88223c0.05233,-0.7428 0.13893,-1.47501 0.25813,-2.19519c4.3133,0.08974 8.56911,0.0066 12.8014,-0.13829c-0.08223,2.08677 -0.13764,3.50231 -0.13876,3.51815c-0.08015,1.13779 1.32335,5.83812 1.59901,6.16617c1.65246,2.52933 4.42729,4.28314 7.67354,4.51184c3.10359,0.21864 7.32856,-0.82417 9.5234,-3.59505c1.70123,-2.14772 1.7696,-6.16001 1.77146,-6.18633c0.02263,-0.32121 0.15266,-2.36287 0.25318,-5.13442c2.18427,-0.02592 4.37698,-0.02019 6.58276,0.03234c1.82856,0.04354 3.84201,0.39739 5.8869,0.68347c0.31247,1.81391 0.41351,3.69419 0.27838,5.61237z" fill="url(#color-3)"/><path d="M238.30596,203.24471c-12.8377,-0.90438 -22.51156,-12.04453 -21.60718,-24.88223c0.90438,-12.8377 12.04453,-22.51156 24.88223,-21.60718c0.7428,0.05233 1.47501,0.13892 2.19519,0.25813c-0.08974,4.3133 -0.0066,8.56911 0.1383,12.80141c-2.08678,-0.08224 -3.50231,-0.13764 -3.51815,-0.13875c-1.13779,-0.08015 -5.83813,1.32334 -6.16618,1.59902c-2.52932,1.65245 -4.28315,4.42729 -4.51184,7.67353c-0.21864,3.10359 0.82418,7.32856 3.59506,9.5234c2.14772,1.70123 6.16,1.7696 6.18633,1.77146c0.32121,0.02263 2.36287,0.15266 5.13442,0.25318c0.02593,2.18426 0.02019,4.37698 -0.03234,6.58276c-0.04354,1.82856 -0.39739,3.84201 -0.68347,5.8869c-1.81391,0.31247 -3.69419,0.4135 -5.61237,0.27837z" fill="url(#color-4)"/><path d="M216.69878,178.52043c0.90438,-12.8377 12.04453,-22.51156 24.88224,-21.60718c12.8377,0.90438 22.51156,12.04453 21.60718,24.88223c-0.05233,0.7428 -0.13892,1.47501 -0.25813,2.19519c-4.3133,-0.08974 -8.56911,-0.0066 -12.80141,0.1383c0.08224,-2.08677 0.13764,-3.50231 0.13876,-3.51815c0.08015,-1.13779 -1.32335,-5.83812 -1.59902,-6.16618c-1.65246,-2.52933 -4.42729,-4.28314 -7.67354,-4.51183c-3.10359,-0.21864 -7.32856,0.82417 -9.5234,3.59505c-1.70123,2.14772 -1.7696,6.16001 -1.77146,6.18633c-0.02263,0.32121 -0.15266,2.36287 -0.25318,5.13442c-2.18427,0.02592 -4.37698,0.02019 -6.58276,-0.03234c-1.82856,-0.04355 -3.84201,-0.3974 -5.8869,-0.68348c-0.31247,-1.8139 -0.4135,-3.69418 -0.27837,-5.61237z" fill="url(#color-5)"/><path d="M241.69404,156.75529c12.8377,0.90438 22.51156,12.04453 21.60718,24.88223c-0.90438,12.8377 -12.04453,22.51156 -24.88223,21.60718c-0.7428,-0.05233 -1.47501,-0.13893 -2.19519,-0.25814c0.08974,-4.31329 0.0066,-8.56911 -0.13829,-12.8014c2.08678,0.08223 3.50231,0.13764 3.51815,0.13875c1.13778,0.08015 5.83812,-1.32334 6.16617,-1.59902c2.52933,-1.65245 4.28315,-4.42729 4.51184,-7.67353c0.21864,-3.10359 -0.82417,-7.32856 -3.59506,-9.5234c-2.14772,-1.70123 -6.16,-1.7696 -6.18633,-1.77146c-0.32121,-0.02263 -2.36287,-0.15266 -5.13442,-0.25318c-0.02593,-2.18427 -0.02019,-4.37698 0.03234,-6.58277c0.04354,-1.82856 0.39739,-3.84201 0.68347,-5.8869c1.8139,-0.31247 3.69419,-0.4135 5.61237,-0.27837z" fill="url(#color-6)"/><path d="M263.30122,181.47957c-0.90438,12.8377 -12.04453,22.51156 -24.88223,21.60718c-12.8377,-0.90438 -22.51156,-12.04453 -21.60718,-24.88223c0.05233,-0.7428 0.13893,-1.47501 0.25814,-2.19519c4.3133,0.08974 8.56911,0.00659 12.8014,-0.1383c-0.08223,2.08678 -0.13764,3.50231 -0.13875,3.51815c-0.08016,1.13778 1.32334,5.83812 1.59902,6.16617c1.65245,2.52932 4.42729,4.28315 7.67353,4.51184c3.10359,0.21864 7.32856,-0.82418 9.5234,-3.59506c1.70123,-2.14772 1.7696,-6.16 1.77146,-6.18633c0.02263,-0.32121 0.15265,-2.36287 0.25318,-5.13442c2.18426,-0.02593 4.37698,-0.02019 6.58277,0.03234c1.82856,0.04354 3.84201,0.39739 5.8869,0.68347c0.31247,1.81391 0.4135,3.69419 0.27837,5.61237z" fill="url(#color-7)"/><path d="M238.30596,203.24471c-12.8377,-0.90438 -22.51156,-12.04453 -21.60718,-24.88223c0.90438,-12.8377 12.04453,-22.51156 24.88224,-21.60718c0.7428,0.05233 1.47501,0.13892 2.19519,0.25813c-0.08973,4.31329 -0.0066,8.56911 0.1383,12.80141c-2.08677,-0.08224 -3.50231,-0.13764 -3.51815,-0.13876c-1.13779,-0.08015 -5.83813,1.32335 -6.16618,1.59902c-2.52932,1.65245 -4.28314,4.42729 -4.51183,7.67354c-0.21864,3.10359 0.82417,7.32856 3.59506,9.5234c2.14772,1.70123 6.16,1.7696 6.18633,1.77146c0.32121,0.02263 2.36287,0.15265 5.13442,0.25318c0.02592,2.18427 0.02019,4.37698 -0.03234,6.58277c-0.04354,1.82856 -0.39739,3.84201 -0.68347,5.8869c-1.81391,0.31247 -3.69419,0.4135 -5.61237,0.27837z" fill="url(#color-8)"/><path d="M216.69878,178.52043c0.90438,-12.8377 12.04453,-22.51156 24.88224,-21.60718c12.8377,0.90438 22.51156,12.04453 21.60718,24.88223c-0.05233,0.7428 -0.13892,1.47501 -0.25813,2.19519c-4.3133,-0.08974 -8.56911,-0.0066 -12.80141,0.1383c0.08224,-2.08677 0.13764,-3.50231 0.13876,-3.51815c0.08015,-1.13779 -1.32335,-5.83812 -1.59902,-6.16618c-1.65246,-2.52933 -4.42729,-4.28314 -7.67354,-4.51183c-3.10359,-0.21864 -7.32856,0.82417 -9.5234,3.59505c-1.70123,2.14772 -1.7696,6.16001 -1.77146,6.18633c-0.02263,0.32121 -0.15266,2.36287 -0.25318,5.13442c-2.18427,0.02592 -4.37698,0.02019 -6.58276,-0.03234c-1.82856,-0.04355 -3.84201,-0.3974 -5.8869,-0.68348c-0.31247,-1.8139 -0.4135,-3.69418 -0.27837,-5.61237z" fill="url(#color-9)"/><path d="M241.69404,156.75529c12.8377,0.90438 22.51156,12.04453 21.60718,24.88223c-0.90438,12.8377 -12.04453,22.51156 -24.88223,21.60718c-0.7428,-0.05233 -1.47501,-0.13893 -2.19519,-0.25814c0.08974,-4.31329 0.0066,-8.56911 -0.13829,-12.8014c2.08678,0.08223 3.50231,0.13764 3.51815,0.13875c1.13778,0.08015 5.83812,-1.32334 6.16617,-1.59902c2.52933,-1.65245 4.28315,-4.42729 4.51184,-7.67353c0.21864,-3.10359 -0.82417,-7.32856 -3.59506,-9.5234c-2.14772,-1.70123 -6.16,-1.7696 -6.18633,-1.77146c-0.32121,-0.02263 -2.36287,-0.15266 -5.13442,-0.25318c-0.02593,-2.18427 -0.02019,-4.37698 0.03234,-6.58277c0.04354,-1.82856 0.39739,-3.84201 0.68347,-5.8869c1.8139,-0.31247 3.69419,-0.4135 5.61237,-0.27837z" fill="url(#color-10)"/><path d="M263.30122,181.47957c-0.90438,12.8377 -12.04453,22.51156 -24.88223,21.60718c-12.8377,-0.90438 -22.51156,-12.04453 -21.60718,-24.88223c0.05233,-0.7428 0.13893,-1.47501 0.25814,-2.19519c4.3133,0.08974 8.56911,0.00659 12.8014,-0.1383c-0.08223,2.08678 -0.13764,3.50231 -0.13875,3.51815c-0.08016,1.13778 1.32334,5.83812 1.59902,6.16617c1.65245,2.52932 4.42729,4.28315 7.67353,4.51184c3.10359,0.21864 7.32856,-0.82418 9.5234,-3.59506c1.70123,-2.14772 1.7696,-6.16 1.77146,-6.18633c0.02263,-0.32121 0.15265,-2.36287 0.25318,-5.13442c2.18426,-0.02593 4.37698,-0.02019 6.58277,0.03234c1.82856,0.04354 3.84201,0.39739 5.8869,0.68347c0.31247,1.81391 0.4135,3.69419 0.27837,5.61237z" fill="url(#color-11)"/><path d="M238.30596,203.24471c-12.8377,-0.90438 -22.51156,-12.04453 -21.60718,-24.88223c0.90438,-12.8377 12.04453,-22.51156 24.88224,-21.60718c0.7428,0.05233 1.47501,0.13892 2.19519,0.25813c-0.08973,4.31329 -0.0066,8.56911 0.1383,12.80141c-2.08677,-0.08224 -3.50231,-0.13764 -3.51815,-0.13876c-1.13779,-0.08015 -5.83813,1.32335 -6.16618,1.59902c-2.52932,1.65245 -4.28314,4.42729 -4.51183,7.67354c-0.21864,3.10359 0.82417,7.32856 3.59506,9.5234c2.14772,1.70123 6.16,1.7696 6.18633,1.77146c0.32121,0.02263 2.36287,0.15265 5.13442,0.25318c0.02592,2.18427 0.02019,4.37698 -0.03234,6.58277c-0.04354,1.82856 -0.39739,3.84201 -0.68347,5.8869c-1.81391,0.31247 -3.69419,0.4135 -5.61237,0.27837z" fill="url(#color-12)"/><path d="M216.69878,178.52043c0.90438,-12.8377 12.04453,-22.51156 24.88224,-21.60718c12.8377,0.90438 22.51156,12.04453 21.60718,24.88223c-0.05233,0.7428 -0.13892,1.47501 -0.25813,2.19519c-4.3133,-0.08974 -8.56911,-0.0066 -12.80141,0.1383c0.08224,-2.08677 0.13764,-3.50231 0.13876,-3.51815c0.08015,-1.13779 -1.32335,-5.83812 -1.59902,-6.16618c-1.65246,-2.52933 -4.42729,-4.28314 -7.67354,-4.51183c-3.10359,-0.21864 -7.32856,0.82417 -9.5234,3.59505c-1.70123,2.14772 -1.7696,6.16001 -1.77146,6.18633c-0.02263,0.32121 -0.15266,2.36287 -0.25318,5.13442c-2.18427,0.02592 -4.37698,0.02019 -6.58276,-0.03234c-1.82856,-0.04355 -3.84201,-0.3974 -5.8869,-0.68348c-0.31247,-1.8139 -0.4135,-3.69418 -0.27837,-5.61237z" fill="url(#color-13)"/><path d="M241.69404,156.75529c12.8377,0.90438 22.51156,12.04453 21.60718,24.88223c-0.90438,12.8377 -12.04453,22.51156 -24.88223,21.60718c-0.7428,-0.05233 -1.47501,-0.13893 -2.19519,-0.25814c0.08974,-4.31329 0.0066,-8.56911 -0.13829,-12.8014c2.08678,0.08223 3.50231,0.13764 3.51815,0.13875c1.13778,0.08015 5.83812,-1.32334 6.16617,-1.59902c2.52933,-1.65245 4.28315,-4.42729 4.51184,-7.67353c0.21864,-3.10359 -0.82417,-7.32856 -3.59506,-9.5234c-2.14772,-1.70123 -6.16,-1.7696 -6.18633,-1.77146c-0.32121,-0.02263 -2.36287,-0.15266 -5.13442,-0.25318c-0.02593,-2.18427 -0.02019,-4.37698 0.03234,-6.58277c0.04354,-1.82856 0.39739,-3.84201 0.68347,-5.8869c1.8139,-0.31247 3.69419,-0.4135 5.61237,-0.27837z" fill="url(#color-14)"/><path d="M263.30122,181.47957c-0.90438,12.8377 -12.04453,22.51156 -24.88223,21.60718c-12.8377,-0.90438 -22.51156,-12.04453 -21.60718,-24.88223c0.05233,-0.7428 0.13893,-1.47501 0.25814,-2.19519c4.3133,0.08974 8.56911,0.00659 12.8014,-0.1383c-0.08223,2.08678 -0.13764,3.50231 -0.13875,3.51815c-0.08016,1.13778 1.32334,5.83812 1.59902,6.16617c1.65245,2.52932 4.42729,4.28315 7.67353,4.51184c3.10359,0.21864 7.32856,-0.82418 9.5234,-3.59506c1.70123,-2.14772 1.7696,-6.16 1.77146,-6.18633c0.02263,-0.32121 0.15265,-2.36287 0.25318,-5.13442c2.18426,-0.02593 4.37698,-0.02019 6.58277,0.03234c1.82856,0.04354 3.84201,0.39739 5.8869,0.68347c0.31247,1.81391 0.4135,3.69419 0.27837,5.61237z" fill="url(#color-15)"/><path d="M238.30596,203.24471c-12.8377,-0.90438 -22.51156,-12.04453 -21.60718,-24.88223c0.90438,-12.8377 12.04453,-22.51156 24.88224,-21.60718c0.7428,0.05233 1.47501,0.13892 2.19519,0.25813c-0.08973,4.31329 -0.0066,8.56911 0.1383,12.80141c-2.08677,-0.08224 -3.50231,-0.13764 -3.51815,-0.13876c-1.13779,-0.08015 -5.83813,1.32335 -6.16618,1.59902c-2.52932,1.65245 -4.28314,4.42729 -4.51183,7.67354c-0.21864,3.10359 0.82417,7.32856 3.59506,9.5234c2.14772,1.70123 6.16,1.7696 6.18633,1.77146c0.32121,0.02263 2.36287,0.15265 5.13442,0.25318c0.02592,2.18427 0.02019,4.37698 -0.03234,6.58277c-0.04354,1.82856 -0.39739,3.84201 -0.68347,5.8869c-1.81391,0.31247 -3.69419,0.4135 -5.61237,0.27837z" fill="url(#color-16)"/></g></g></g></svg>