<svg version="1.1" xmlns="http://www.w3.org/2000/svg" xmlns:xlink="http://www.w3.org/1999/xlink" width="49.9609" height="45.74143" viewBox="0,0,49.9609,45.74143"><g transform="translate(-214.85546,-157.02648)"><g data-paper-data="{&quot;isPaintingLayer&quot;:true}" fill-rule="nonzero" stroke-width="1" stroke-linecap="butt" stroke-linejoin="miter" stroke-miterlimit="10" stroke-dasharray="" stroke-dashoffset="0" style="mix-blend-mode: normal"><path d="M235.50033,171.77732l0.87299,-1.68538c1.83559,-3.53968 3.41323,-7.17571 5.2466,-10.71854c0,0 1.51638,-2.92748 4.44385,-1.4111c2.92747,1.51638 1.4111,4.44384 1.4111,4.44384c-0.68497,1.32108 -1.28319,4.25886 -2.12851,5.17028c-1.42049,1.53153 -3.14706,0.8855 -4.29596,3.10595l0.30489,4.1277c0,0 -1.51638,2.92748 -4.44385,1.4111c-2.92747,-1.51638 -1.4111,-4.44385 -1.4111,-4.44385z" data-paper-data="{&quot;index&quot;:null}" fill="#c13b3b" stroke="#511313"/><path d="M245.36966,175.27271l0.87299,-1.68538c1.83559,-3.53968 3.41323,-7.17571 5.2466,-10.71854c0,0 1.51637,-2.92748 4.44385,-1.4111c2.92748,1.51637 1.4111,4.44384 1.4111,4.44384c-0.68497,1.32108 -1.28318,4.25886 -2.12851,5.17027c-1.42049,1.53153 -3.14706,0.8855 -4.29596,3.10595l0.30488,4.1277c0,0 -1.51637,2.92748 -4.44385,1.4111c-2.92748,-1.51637 -1.4111,-4.44385 -1.4111,-4.44385z" data-paper-data="{&quot;index&quot;:null}" fill="#c13b3b" stroke="#511313"/><path d="M254.93848,182.82612l0.66198,-1.27801c1.39191,-2.6841 2.58821,-5.44127 3.97845,-8.12775c0,0 1.14985,-2.21988 3.36972,-1.07003c2.21988,1.14985 1.07003,3.36972 1.07003,3.36972c-0.51941,1.00176 -0.97302,3.22945 -1.61403,3.92056c-1.07715,1.16135 -2.38639,0.67146 -3.25758,2.35521l0.23119,3.12999c0,0 -1.14985,2.21988 -3.36972,1.07003c-2.21988,-1.14985 -1.07003,-3.36972 -1.07003,-3.36972z" data-paper-data="{&quot;index&quot;:null}" fill="#c13b3b" stroke="#511313"/><g fill="#e1cfa6" stroke="#949494"><path d="M233.16058,202.26791l11.46976,-21.79255l15.05406,6.88186l-6.59511,14.91069z"/><path d="M215.68364,202.26791l16.44888,-31.25288l21.58916,9.86933l-9.45811,21.38355z"/></g></g></g></svg>