<svg version="1.1" xmlns="http://www.w3.org/2000/svg" xmlns:xlink="http://www.w3.org/1999/xlink" width="28.24996" height="18.58926" viewBox="0,0,28.24996,18.58926"><g transform="translate(-226.01646,-170.69314)"><g data-paper-data="{&quot;isPaintingLayer&quot;:true}" fill="#fff14f" fill-rule="nonzero" stroke="#54470e" stroke-width="1" stroke-linecap="butt" stroke-linejoin="miter" stroke-miterlimit="10" stroke-dasharray="" stroke-dashoffset="0" style="mix-blend-mode: normal"><path d="M234.73695,171.81825c4.62692,-1.33426 7.52044,-0.12802 10.29824,-0.06035c2.70284,1.29449 4.08339,3.56953 5.62489,6.06883c1.04949,1.70157 2.5195,2.71465 2.5195,2.71465c0,0 -1.38043,0.49453 -2.01777,1.4867c-1.53495,2.38948 -3.69474,6.67834 -7.59402,6.75432c-2.93513,0.05719 -5.25472,0.02623 -8.54342,-0.22426c-3.01418,-0.22958 -5.5395,-4.62457 -6.94054,-7.05306c-0.54027,-0.93648 -1.26343,-1.58053 -1.26343,-1.58053c0,0 0.93612,-0.65728 1.51565,-1.60264c1.28068,-2.08911 3.21545,-5.58508 6.40089,-6.50366z"/></g></g></svg>