<svg version="1.1" xmlns="http://www.w3.org/2000/svg" xmlns:xlink="http://www.w3.org/1999/xlink" width="132.81899" height="47.8709" viewBox="0,0,132.81899,47.8709"><g transform="translate(-173.59051,-156.06455)"><g data-paper-data="{&quot;isPaintingLayer&quot;:true}" fill-rule="nonzero" stroke-width="1" stroke-linecap="butt" stroke-linejoin="miter" stroke-miterlimit="10" stroke-dasharray="" stroke-dashoffset="0" style="mix-blend-mode: normal"><path d="M177.70597,186.92937v-20.66391h125.92072v20.66391z" fill="#d0d0d0" stroke="#7b7b7b"/><path d="M177.70597,186.92937v-21.63253h93.31048v21.63253z" fill="#ff2b2b" stroke="#570c0c"/><path d="M253.38439,187.28634v-23.06042h19.41692v23.06042z" fill="#ff2b2b" stroke="#570c0c"/><path d="M176.35062,198.59234v-13.88649h126.33014v13.88649z" fill="#ff972b" stroke="#57390c"/><path d="M174.09051,203.43545v-44.55949h5.5754v44.55949z" fill="#ff972b" stroke="#57390c"/><path d="M297.86923,160.51199c-0.01811,5.40735 4.5745,4.87798 0.69183,6.80394c-4.1737,2.07032 -7.87756,0.24156 -12.46992,0.1941c-4.0924,-0.0423 -12.52581,2.5652 -13.75872,-0.14221c-1.48836,-3.26837 -0.27963,-1.4976 -0.26187,-6.79949c0.01793,-5.35572 25.81625,-5.30224 25.79868,-0.05634z" fill="#e3e3e3" stroke="#919191"/><path d="M300.3341,203.43545v-44.55949h5.5754v44.55949z" fill="#ff972b" stroke="#57390c"/></g></g></svg>