<svg version="1.1" xmlns="http://www.w3.org/2000/svg" xmlns:xlink="http://www.w3.org/1999/xlink" width="59.00771" height="57.017" viewBox="0,0,59.00771,57.017"><g transform="translate(-210.44017,-151.48704)"><g data-paper-data="{&quot;isPaintingLayer&quot;:true}" fill="#ff3a3a" fill-rule="nonzero" stroke="#870909" stroke-width="1" stroke-linejoin="miter" stroke-miterlimit="10" stroke-dasharray="" stroke-dashoffset="0" style="mix-blend-mode: normal"><path d="M267.95835,154.1328c0,0 1.94762,2.63245 0.37811,8.28034c-1.6096,5.79218 -2.60384,14.33916 -2.60384,18.75895c0,4.98178 1.08473,12.72801 2.85345,18.23536c1.35516,4.21962 -0.62772,7.31159 -0.62772,7.31159c0,0 -5.4875,1.98958 -10.66646,1.01742c-6.52192,-1.22425 -12.21412,-1.97131 -17.57464,-1.97131c-4.43114,0 -13.83414,0.80463 -19.24884,1.92232c-5.36769,1.10799 -8.03838,-0.96844 -8.03838,-0.96844c0,0 -1.59288,-2.83806 -0.80441,-6.01855c1.30268,-5.25469 2.39422,-12.544 2.39422,-17.62064c0,-5.53428 -1.59634,-14.18506 -2.87711,-20.74532c-0.85798,-4.39466 1.28731,-8.20174 1.28731,-8.20174c0,0 3.93345,-2.15034 8.42802,-1.34196c5.91507,1.06386 13.26746,3.56769 18.54124,3.56769c4.69717,0 13.6017,-3.21429 19.65228,-4.18505c5.83641,-0.93639 8.90678,1.95932 8.90678,1.95932z" stroke-linecap="butt"/><g stroke-linecap="round"><path d="M226.1687,165.802l-2.54369,-2.86165"/><path d="M226.48666,162.30443l-2.86165,3.49757"/></g><g stroke-linecap="round"><path d="M252.74727,165.29263l3.59643,-1.31342"/><path d="M255.4085,166.34474l-2.20049,-3.94713"/></g><g stroke-linecap="round"><path d="M224.77188,197.29082l-3.0627,-2.29766"/><path d="M224.2019,194.48651l-2.10767,3.99747"/></g><g stroke-linecap="round"><path d="M254.09961,195.2902l2.97637,-2.40844"/><path d="M254.2174,192.74924l3.3613,3.02054"/></g></g></g></svg>