<svg version="1.1" xmlns="http://www.w3.org/2000/svg" xmlns:xlink="http://www.w3.org/1999/xlink" width="31.7297" height="24.32824" viewBox="0,0,31.7297,24.32824"><g transform="translate(-224.05744,-167.63739)"><g data-paper-data="{&quot;isPaintingLayer&quot;:true}" fill="#9fff66" fill-rule="nonzero" stroke="#505210" stroke-width="1" stroke-linecap="butt" stroke-linejoin="miter" stroke-miterlimit="10" stroke-dasharray="" stroke-dashoffset="0" style="mix-blend-mode: normal"><path d="M255.2273,168.53438c0,0 -3.30546,4.1754 -3.54432,5.60414c-0.4071,2.43508 -0.2381,6.18233 -1.0014,7.1976c-1.21116,1.611 -1.47368,5.36602 -6.91438,8.19997c-3.30985,1.72404 -7.56439,2.66285 -12.52373,1.22358c-2.55055,-0.7402 -6.47078,-1.63902 -6.47078,-1.63902c0,0 1.11245,-2.37808 3.02433,-3.84001c3.13696,-2.39869 8.00657,-1.4063 11.19793,-3.06979c5.59102,-2.9143 4.96619,-3.20673 8.2202,-7.30333c0.96083,-1.20962 2.01028,-1.93342 2.94429,-2.36585c1.53857,-0.71231 5.06785,-4.00732 5.06785,-4.00732z"/></g></g></svg>