<svg version="1.1" xmlns="http://www.w3.org/2000/svg" xmlns:xlink="http://www.w3.org/1999/xlink" width="40.28837" height="70.10595" viewBox="0,0,40.28837,70.10595"><g transform="translate(-219.85581,-144.94805)"><g data-paper-data="{&quot;isPaintingLayer&quot;:true}" fill-rule="nonzero" stroke="#000000" stroke-width="1" stroke-linejoin="miter" stroke-miterlimit="10" stroke-dasharray="" stroke-dashoffset="0" style="mix-blend-mode: normal"><path d="M222.67498,191.26123c1.47191,-3.59674 7.25838,-5.68434 9.47732,-9.95022c2.33656,-4.49202 4.2843,-8.1727 4.2843,-8.1727l7.23296,0.0909c0,0 2.00044,5.25466 4.62272,7.97556c4.31184,4.47398 4.40517,4.85566 8.08494,8.95253c3.01997,3.36227 5.00666,12.91868 1.08434,17.70239c-4.1276,5.03407 -10.20309,6.3409 -10.20309,6.3409l-13.06803,0.35136c0,0 -5.68548,-1.77373 -9.97081,-5.33026c-5.39193,-4.47493 -4.38778,-11.013 -1.54464,-17.96046z" fill="#e63c3c" stroke-linecap="butt"/><path d="M235.18621,166.05478c0,-2.80331 2.27253,-5.07584 5.07584,-5.07584c2.80331,0 5.07584,2.27253 5.07584,5.07584c0,1.69685 -3.31789,6.79903 -3.31789,6.79903l-3.59783,0.1167c0,0 -3.23595,-4.11242 -3.23595,-6.91573z" fill="#f9ffba" stroke-linecap="butt"/><path d="M221.12723,175.99017v-30.54212h38.26965v30.54212z" fill-opacity="0.81569" fill="#f0eeeb" stroke-linecap="butt"/><path d="M251.66935,176.35815v13.61516" fill="none" stroke-linecap="round"/></g></g></svg>