<svg version="1.1" xmlns="http://www.w3.org/2000/svg" xmlns:xlink="http://www.w3.org/1999/xlink" width="64.90665" height="35.22323" viewBox="0,0,64.90665,35.22323"><g transform="translate(-207.54668,-162.38838)"><g data-paper-data="{&quot;isPaintingLayer&quot;:true}" fill-rule="nonzero" stroke-width="1" stroke-linejoin="miter" stroke-miterlimit="10" stroke-dasharray="" stroke-dashoffset="0" style="mix-blend-mode: normal"><path d="M208.04668,197.11162v-34.22323h63.90665v34.22323z" fill="#d7d7d7" stroke="#818181" stroke-linecap="butt"/><path d="M211.18962,194.31788v-28.63576h31.5839v28.63576z" fill="#252525" stroke="#818181" stroke-linecap="butt"/><path d="M251.69876,172.66645v-6.98433h17.81005v6.98433z" fill="#252525" stroke="#818181" stroke-linecap="butt"/><text transform="translate(253.27657,170.86844) scale(0.13865,0.13865)" font-size="40" xml:space="preserve" fill="#adff9e" fill-rule="nonzero" stroke="none" stroke-width="1" stroke-linecap="butt" stroke-linejoin="miter" stroke-miterlimit="10" stroke-dasharray="" stroke-dashoffset="0" font-family="Sans Serif" font-weight="normal" text-anchor="start" style="mix-blend-mode: normal"><tspan x="0" dy="0">12:00</tspan></text><g stroke-linecap="butt"><path d="M252.72055,176.51925c0,-1.25364 1.01627,-2.26991 2.26991,-2.26991c1.25364,0 2.26991,1.01627 2.26991,2.26991c0,1.25364 -1.01627,2.26991 -2.26991,2.26991c-1.25364,0 -2.26991,-1.01627 -2.26991,-2.26991z" fill="#d7d7d7" stroke="#818181"/><path d="M258.25106,176.51925c0,-1.25364 1.01627,-2.26991 2.26991,-2.26991c1.25364,0 2.2699,1.01627 2.2699,2.26991c0,1.25364 -1.01627,2.26991 -2.2699,2.26991c-1.25364,0 -2.26991,-1.01628 -2.26991,-2.26991z" fill="#d7d7d7" stroke="#818181"/><path d="M263.7085,176.51925c0,-1.25364 1.01628,-2.26991 2.26991,-2.26991c1.25364,0 2.2699,1.01627 2.2699,2.26991c0,1.25364 -1.01627,2.26991 -2.2699,2.26991c-1.25364,0 -2.26991,-1.01628 -2.26991,-2.26991z" fill="#d7d7d7" stroke="#818181"/><path d="M252.72055,182.10671c0,-1.25363 1.01627,-2.26991 2.26991,-2.26991c1.25363,0 2.26991,1.01627 2.26991,2.26991c0,1.25363 -1.01627,2.26991 -2.26991,2.26991c-1.25364,0 -2.26991,-1.01627 -2.26991,-2.26991z" fill="#d7d7d7" stroke="#818181"/><path d="M258.25106,182.10671c0,-1.25363 1.01628,-2.26991 2.26991,-2.26991c1.25364,0 2.2699,1.01627 2.2699,2.26991c0,1.25363 -1.01627,2.26991 -2.2699,2.26991c-1.25363,0 -2.26991,-1.01627 -2.26991,-2.26991z" fill="#d7d7d7" stroke="#818181"/><path d="M263.7085,182.10671c0,-1.25363 1.01627,-2.26991 2.26991,-2.26991c1.25364,0 2.26991,1.01627 2.26991,2.26991c0,1.25363 -1.01627,2.26991 -2.26991,2.26991c-1.25364,0 -2.26991,-1.01627 -2.26991,-2.26991z" fill="#d7d7d7" stroke="#818181"/><path d="M252.72055,187.34496c0,-1.25363 1.01627,-2.26991 2.26991,-2.26991c1.25363,0 2.26991,1.01627 2.26991,2.26991c0,1.25363 -1.01627,2.26991 -2.26991,2.26991c-1.25364,0 -2.26991,-1.01627 -2.26991,-2.26991z" fill="#d7d7d7" stroke="#818181"/><path d="M258.25106,187.34496c0,-1.25363 1.01628,-2.26991 2.26991,-2.26991c1.25364,0 2.2699,1.01627 2.2699,2.26991c0,1.25363 -1.01627,2.26991 -2.2699,2.26991c-1.25363,0 -2.26991,-1.01627 -2.26991,-2.26991z" fill="#d7d7d7" stroke="#818181"/><path d="M263.7085,187.34496c0,-1.25363 1.01627,-2.26991 2.26991,-2.26991c1.25364,0 2.26991,1.01627 2.26991,2.26991c0,1.25363 -1.01627,2.26991 -2.26991,2.26991c-1.25364,0 -2.26991,-1.01627 -2.26991,-2.26991z" fill="#d7d7d7" stroke="#818181"/><path d="M252.72055,192.72934c0,-1.25364 1.01627,-2.26991 2.26991,-2.26991c1.25363,0 2.26991,1.01628 2.26991,2.26991c0,1.25364 -1.01627,2.26991 -2.26991,2.26991c-1.25364,0 -2.26991,-1.01628 -2.26991,-2.26991z" fill="#d7d7d7" stroke="#818181"/><path d="M257.7908,192.72934c0,-1.25364 1.01627,-2.26991 2.26991,-2.26991c0.58554,0 5.38949,-0.4464 6.94775,0.3286c1.20535,0.59948 1.55398,1.27322 1.55398,1.94131c0,0.71438 -0.06521,1.885 -2.14204,2.3011c-1.5677,0.31409 -5.82044,-0.03119 -6.35969,-0.03119c-1.25364,0 -2.26991,-1.01628 -2.26991,-2.26991z" fill="#d7d7d7" stroke="#818181"/></g><path d="M248.51127,163.11639v33.59738" fill="none" stroke="#818181" stroke-linecap="round"/><path d="M244.58874,194.1556v-28.31049h2.04654v28.31049z" fill="#d7d7d7" stroke="#818181" stroke-linecap="butt"/></g></g></svg>